<?xml version="1.0" encoding="UTF-8" standalone="no"?>
<!-- Created with Inkscape (http://www.inkscape.org/) -->

<svg
   width="124.04682"
   height="37.930965"
   viewBox="0 0 32.820722 10.035901"
   version="1.1"
   id="svg549202"
   inkscape:version="1.1.1 (3bf5ae0d25, 2021-09-20)"
   sodipodi:docname="Logo.svg"
   xmlns:inkscape="http://www.inkscape.org/namespaces/inkscape"
   xmlns:sodipodi="http://sodipodi.sourceforge.net/DTD/sodipodi-0.dtd"
   xmlns="http://www.w3.org/2000/svg"
   xmlns:svg="http://www.w3.org/2000/svg">
  <sodipodi:namedview
     id="namedview549204"
     pagecolor="#505050"
     bordercolor="#ffffff"
     borderopacity="1"
     inkscape:pageshadow="0"
     inkscape:pageopacity="0"
     inkscape:pagecheckerboard="1"
     inkscape:document-units="mm"
     showgrid="false"
     inkscape:zoom="3.3104096"
     inkscape:cx="-75.821432"
     inkscape:cy="114.3363"
     inkscape:window-width="2560"
     inkscape:window-height="1357"
     inkscape:window-x="0"
     inkscape:window-y="0"
     inkscape:window-maximized="1"
     inkscape:current-layer="layer1"
     units="px"
     fit-margin-top="0"
     fit-margin-left="0"
     fit-margin-right="0"
     fit-margin-bottom="0" />
  <defs
     id="defs549199" />
  <g
     inkscape:label="Calque 1"
     inkscape:groupmode="layer"
     id="layer1"
     transform="translate(-1.6024994,-1.4417753)">
    <g
       id="g171531-7-6"
       transform="matrix(0.35277778,0,0,0.35277778,-264.02038,344.34215)"
       style="stroke:#ffffff;stroke-width:0.150236;stroke-miterlimit:4;stroke-dasharray:none"
       inkscape:export-filename="/home/thomas/Bureau/plot_types.png"
       inkscape:export-xdpi="300"
       inkscape:export-ydpi="300">
      <path
         style="fill:none;fill-opacity:1;stroke:#e49303;stroke-width:1.56756;stroke-linecap:butt;stroke-linejoin:miter;stroke-miterlimit:4;stroke-dasharray:none;stroke-opacity:1"
         d="m 798.88809,-950.507 c 0,0 4.23101,5.7403 11.7528,6.0372 7.52179,0.2969 35.3326,0 35.3326,0"
         id="path107526-34-4-9"
         sodipodi:nodetypes="csc" />
      <path
         style="fill:none;fill-opacity:1;stroke:#e49303;stroke-width:1.56756;stroke-linecap:round;stroke-linejoin:miter;stroke-miterlimit:4;stroke-dasharray:none;stroke-opacity:1"
         d="m 787.74942,-965.0475 c 0,0 -4.23101,-5.7403 -11.7528,-6.0372 -7.52179,-0.297 -22.2661,0 -22.2661,0"
         id="path107526-3-7-3-0"
         sodipodi:nodetypes="csc" />
      <path
         d="m 767.33296,-962.47557 c -2.49729,-2.6106 -7.18412,-2.5722 -9.58041,0.16298 -2.33218,2.41809 -2.42029,6.66446 -0.01,9.05769 2.00784,2.13261 5.48266,2.83701 8.04759,1.29762 0.89573,-0.38265 2.36219,-2.36519 2.90267,-0.59781 0.0515,1.15833 -1.40216,1.51904 -2.17862,2.10814 -3.32006,1.80294 -7.87162,1.03875 -10.24224,-1.96559 -2.6716,-3.0152 -2.62961,-8.00074 0.14541,-10.93429 2.47034,-2.78292 6.83325,-3.55646 10.11163,-1.8061 0.85614,0.47427 1.72969,1.07208 2.23216,1.92378 0.17897,0.72927 -0.93406,1.37745 -1.42829,0.75358 z"
         style="font-size:30px;line-height:1.25;font-family:Elementary;-inkscape-font-specification:Elementary;letter-spacing:0px;word-spacing:0px;fill:#ffffff;fill-opacity:1;stroke:none;stroke-width:0.150236;stroke-miterlimit:4;stroke-dasharray:none;stroke-opacity:1"
         id="path108423-7-7-3" />
      <path
         d="m 772.40229,-961.40831 c -0.17636,1.80325 -0.26846,3.6252 -0.14176,5.43408 0.1671,1.34648 0.60526,2.74895 1.66468,3.66479 1.73681,1.60512 4.67923,1.60195 6.40147,-0.0245 1.3742,-1.21384 1.66879,-3.15164 1.6878,-4.89075 0.0293,-1.43209 -0.0642,-2.86433 -0.20416,-4.28795 -0.0459,-0.69498 0.87276,-1.09228 1.36882,-0.6264 0.42889,0.36468 0.29118,0.99599 0.38779,1.49307 0.13883,1.82171 0.18072,3.66551 -0.0499,5.48056 -0.25871,1.52831 -0.8943,3.04632 -2.09032,4.07699 -1.58223,1.45671 -3.9125,1.9945 -5.982,1.42868 -1.57012,-0.31019 -2.89189,-1.42369 -3.74589,-2.74222 -1.06511,-1.73888 -1.19063,-3.84765 -1.16196,-5.83566 0.0253,-1.17986 0.0618,-2.36781 0.25539,-3.5331 0.17342,-0.6717 1.21993,-0.77108 1.51302,-0.13779 0.0887,0.15197 0.1031,0.32872 0.0971,0.50033 z"
         style="font-size:30px;line-height:1.25;font-family:Elementary;-inkscape-font-specification:Elementary;letter-spacing:0px;word-spacing:0px;fill:#ffffff;fill-opacity:1;stroke:none;stroke-width:0.150236;stroke-miterlimit:4;stroke-dasharray:none;stroke-opacity:1"
         id="path108425-2-9-5" />
      <path
         d="m 786.90253,-949.47171 c -0.81028,-0.27313 -0.81653,-1.34498 -0.99487,-2.06015 -0.376,-2.62249 -0.32492,-5.28219 -0.40871,-7.92424 -0.0214,-1.60551 -0.0523,-3.2119 -0.0388,-4.81734 0.25167,-0.92115 1.45094,-0.97246 2.19976,-1.29358 2.99936,-0.79524 6.28103,-0.71106 9.17213,0.45907 1.39978,0.60438 2.90955,1.68866 3.07522,3.32823 0.161,1.54715 -1.07557,2.80209 -2.34342,3.47339 -1.10146,0.60304 -2.32726,0.94435 -3.56161,1.14368 1.97574,2.11344 3.93611,4.24558 5.79868,6.45912 0.57508,0.81527 -0.76847,1.72961 -1.34443,0.96479 -2.12168,-2.47258 -4.32683,-4.87206 -6.56571,-7.23853 -1.58255,0.0483 -3.17611,-0.17342 -4.68652,-0.64928 0.0396,1.97716 0.10414,3.95527 0.36254,5.91809 0.0713,0.76776 0.53065,2.15439 -0.66442,2.23683 z m 0.26688,-9.94139 c 2.44414,0.92297 5.18352,1.00018 7.71034,0.38297 1.1744,-0.35438 2.46394,-0.80735 3.18656,-1.86526 0.51062,-0.79001 -0.15015,-1.67093 -0.82501,-2.09349 -2.10846,-1.37682 -4.75723,-1.56323 -7.204,-1.34316 -0.99645,0.10572 -1.988,0.31938 -2.9143,0.70805 0.008,1.40357 0.0222,2.80803 0.0467,4.21089 z"
         style="font-size:30px;line-height:1.25;font-family:Elementary;-inkscape-font-specification:Elementary;letter-spacing:0px;word-spacing:0px;fill:#e49303;fill-opacity:1;stroke:none;stroke-width:0.150236;stroke-miterlimit:4;stroke-dasharray:none;stroke-opacity:1"
         id="path108427-3-0-5" />
      <path
         d="m 803.9201,-961.41995 c -0.30861,3.08963 -0.3878,6.20183 -0.24351,9.30342 3.312,-3.21222 6.45984,-6.59074 9.50401,-10.05605 0.60177,-0.54191 1.70253,0.29696 1.25399,1.00699 -0.50817,0.77496 -1.21693,1.3898 -1.79613,2.10948 -2.92784,3.26639 -5.97202,6.43015 -9.16215,9.44146 -0.65308,0.53675 -1.5656,-0.19006 -1.36145,-0.95797 -0.29585,-3.70479 -0.21801,-7.43563 0.15997,-11.13115 0.16828,-0.90428 1.70245,-0.76372 1.64432,0.17841 v 0.10541 z"
         style="font-size:30px;line-height:1.25;font-family:Elementary;-inkscape-font-specification:Elementary;letter-spacing:0px;word-spacing:0px;fill:#ffffff;fill-opacity:1;stroke:none;stroke-width:0.150236;stroke-miterlimit:4;stroke-dasharray:none;stroke-opacity:1"
         id="path108429-2-0-8" />
      <path
         d="m 820.92603,-962.34791 c 2.4424,-0.0111 5.24124,0.91204 6.35023,3.26939 0.49368,2.0695 -1.79003,3.20034 -3.46753,3.60976 -2.41334,0.66679 -5.2247,0.38772 -7.35414,1.75701 -0.67771,2.26272 2.81445,2.5528 4.35502,2.60665 2.23137,0.19219 4.27576,-0.72674 5.42315,-2.57276 2.34698,-0.29213 0.40879,3.24794 -1.08499,3.3832 -3.11307,1.30617 -7.07357,1.25248 -9.8241,-0.87586 -1.41103,-1.37657 -0.46192,-3.52581 -0.84632,-5.23776 0.19085,-3.21539 3.18886,-6.09675 6.44868,-5.93963 z m 3.59605,4.89526 c 2.3496,-0.83903 0.0269,-2.4074 -1.78916,-3.04117 -2.37438,-0.67241 -5.24132,0.32239 -6.24554,2.68497 -1.61011,3.31707 7.14911,0.80878 8.0347,0.3562 z"
         style="font-size:30px;line-height:1.25;font-family:Elementary;-inkscape-font-specification:Elementary;letter-spacing:0px;word-spacing:0px;fill:#ffffff;fill-opacity:1;stroke:none;stroke-width:0.150236;stroke-miterlimit:4;stroke-dasharray:none;stroke-opacity:1"
         id="path108431-18-2-7"
         sodipodi:nodetypes="cccccccccccccc" />
      <path
         d="m 830.7746,-949.47171 c -0.93057,-0.42502 -0.85099,-1.58374 -1.045,-2.42918 -0.40293,-3.54443 -0.31178,-7.11863 -0.39738,-10.67889 0.0206,-0.59386 -0.0554,-1.20814 0.0396,-1.789 0.47602,-0.97358 1.69857,-0.95703 2.58392,-1.30428 3.28785,-0.75302 6.93411,-0.55164 9.89728,1.16609 1.23926,0.75429 2.30429,2.23912 1.82733,3.74335 -0.57081,1.7814 -2.41794,2.70627 -4.08799,3.21483 -0.45614,0.23275 -1.52768,0.20772 -1.62532,0.48521 1.94461,2.08121 3.87196,4.18025 5.7061,6.36005 0.49209,0.69696 -0.46018,1.45886 -1.13552,1.16356 -0.63495,-0.4369 -0.96407,-1.23055 -1.56069,-1.75234 -1.7007,-1.92877 -3.4467,-3.81708 -5.21393,-5.68496 -1.58382,0.0483 -3.17524,-0.17327 -4.68652,-0.64928 0.0214,2.41912 0.19117,4.83737 0.51847,7.23353 0.009,0.45701 -0.31859,0.95251 -0.82026,0.92131 z m 0.26679,-9.94139 c 2.99342,1.09173 6.43798,1.08405 9.36013,-0.22973 0.72436,-0.36301 1.52323,-0.90246 1.70474,-1.7407 0.0372,-1.09956 -1.05569,-1.71709 -1.92204,-2.11922 -2.42308,-1.09727 -5.20878,-1.09814 -7.77528,-0.57738 -0.70005,0.19243 -1.73689,0.27043 -1.40888,1.24575 0.009,1.14035 0.0198,2.28172 0.0412,3.42128 z"
         style="font-size:30px;line-height:1.25;font-family:Elementary;-inkscape-font-specification:Elementary;letter-spacing:0px;word-spacing:0px;fill:#ffffff;fill-opacity:1;stroke:none;stroke-width:0.150236;stroke-miterlimit:4;stroke-dasharray:none;stroke-opacity:1"
         id="path108433-7-2-1" />
    </g>
  </g>
</svg>
